<svg xmlns="http://www.w3.org/2000/svg" width="50" height="50" fill="none"><g fill="#fff" clip-path="url(#a)"><path d="M34.944.025c-.107-.119-3.935.047-7.266 3.663-3.331 3.612-2.819 7.756-2.744 7.862.075.106 4.75.272 7.735-3.931C35.653 3.416 35.05.147 34.944.025ZM45.3 36.691c-.15-.3-7.266-3.857-6.603-10.694.662-6.84 5.234-8.716 5.306-8.919.072-.203-1.865-2.469-3.919-3.615a11.537 11.537 0 0 0-4.884-1.357c-.338-.01-1.51-.297-3.919.363-1.587.434-5.165 1.84-6.15 1.897-.987.056-3.925-1.632-7.084-2.079-2.022-.39-4.166.41-5.7 1.025-1.531.613-4.444 2.357-6.481 6.991-2.038 4.631-.972 11.969-.21 14.25.763 2.278 1.953 6.013 3.978 8.738 1.8 3.075 4.188 5.209 5.185 5.934.997.725 3.81 1.206 5.76.21 1.568-.963 4.4-1.516 5.518-1.476 1.115.041 3.316.482 5.569 1.685 1.784.615 3.471.36 5.162-.328 1.69-.691 4.138-3.31 6.994-8.62 1.084-2.468 1.578-3.802 1.478-4.005Z"/><path d="M34.944.025c-.107-.119-3.935.047-7.266 3.663-3.331 3.612-2.819 7.756-2.744 7.862.075.106 4.75.272 7.735-3.931C35.653 3.416 35.05.147 34.944.025ZM45.3 36.691c-.15-.3-7.266-3.857-6.603-10.694.662-6.84 5.234-8.716 5.306-8.919.072-.203-1.865-2.469-3.919-3.615a11.537 11.537 0 0 0-4.884-1.357c-.338-.01-1.51-.297-3.919.363-1.587.434-5.165 1.84-6.15 1.897-.987.056-3.925-1.632-7.084-2.079-2.022-.39-4.166.41-5.7 1.025-1.531.613-4.444 2.357-6.481 6.991-2.038 4.631-.972 11.969-.21 14.25.763 2.278 1.953 6.013 3.978 8.738 1.8 3.075 4.188 5.209 5.185 5.934.997.725 3.81 1.206 5.76.21 1.568-.963 4.4-1.516 5.518-1.476 1.115.041 3.316.482 5.569 1.685 1.784.615 3.471.36 5.162-.328 1.69-.691 4.138-3.31 6.994-8.62 1.084-2.468 1.578-3.802 1.478-4.005Z"/></g><defs><clipPath id="a"><path fill="#fff" d="M0 0h50v50H0z"/></clipPath></defs></svg>