<svg xmlns="http://www.w3.org/2000/svg" width="28" height="38" fill="none"><path fill="#fff" d="M27.584 8.013a8.867 8.867 0 0 1-3.121 1.14c1.135-.905 1.984-2.33 2.389-4.01-1.067.845-2.234 1.44-3.451 1.758-.819-1.165-1.903-1.938-3.084-2.197-1.182-.26-2.395.008-3.45.762-1.056.753-1.896 1.95-2.389 3.405a9.494 9.494 0 0 0-.338 4.641c-2.161-.145-4.275-.894-6.205-2.198-1.93-1.305-3.633-3.136-4.997-5.374a9.162 9.162 0 0 0-.735 3.643c0 1.193.22 2.368.641 3.42.422 1.052 1.032 1.95 1.776 2.612-.863-.037-1.707-.347-2.462-.907v.094c0 1.673.434 3.295 1.229 4.59.795 1.295 1.901 2.184 3.131 2.515-.8.29-1.64.332-2.455.125.348 1.44 1.024 2.699 1.934 3.6.91.903 2.01 1.403 3.144 1.43-1.925 2.016-4.303 3.109-6.75 3.104-.434 0-.867-.034-1.298-.101 2.485 2.13 5.377 3.26 8.33 3.256 9.999 0 15.464-11.042 15.464-20.618 0-.311-.006-.625-.016-.936 1.063-1.025 1.98-2.295 2.71-3.75l.003-.004Z"/></svg>